# MagicaVoxel @ Ephtracy

# group
o 

# material
mtllib flower.mtl
usemtl palette

# normals
vn -1 0 0
vn 1 0 0
vn 0 0 1
vn 0 0 -1
vn 0 -1 0
vn 0 1 0

# texcoords
vt 0.482422 0.5
vt 0.849609 0.5
vt 0.865234 0.5

# verts
v -1 1 1
v -1 1 0.9
v -1 1.1 1
v -1 1.1 0.9
v -0.9 1 0.1
v -0.9 1 0
v -0.9 1.1 0.1
v -0.9 1.1 0
v -0.8 1 0.7
v -0.8 1 0.6
v -0.8 1.1 0.7
v -0.8 1.1 0.6
v -0.5 1 -0.4
v -0.5 1 -0.5
v -0.5 1.1 -0.4
v -0.5 1.1 -0.5
v -0.4 1 -0.3
v -0.4 1 -0.4
v -0.4 1.1 -0.3
v -0.4 1.1 -0.4
v -0.3 1 0.3
v -0.3 1 0.2
v -0.3 1 0.1
v -0.3 1 -0.2
v -0.3 1 -0.5
v -0.3 1 -0.6
v -0.3 1.1 0.3
v -0.3 1.1 0.2
v -0.3 1.1 0.1
v -0.3 1.1 -0.2
v -0.3 1.1 -0.5
v -0.3 1.1 -0.6
v -0.2 1 0.4
v -0.2 1 0.3
v -0.2 1 0.2
v -0.2 1 0.1
v -0.2 1 -0.2
v -0.2 1 -0.3
v -0.2 1.1 0.4
v -0.2 1.1 0.3
v -0.2 1.1 0.2
v -0.2 1.1 0.1
v -0.2 1.1 -0.2
v -0.2 1.1 -0.3
v -0.2 1.2 0.1
v -0.2 1.2 -0.2
v -0.1 1.2 0
v -0.1 1.2 -0.1
v -0.1 1.8 0
v -0.1 1.8 -0.1
v 0 1 0.3
v 0 1 0.2
v 0 1.1 0.3
v 0 1.1 0.2
v 0 1.8 0
v 0 1.8 -0.1
v 0 1.9 0
v 0 1.9 -0.1
v 0.1 1.9 0
v 0.1 1.9 -0.1
v 0.1 2 0
v 0.1 2 -0.1
v 0.1 2.1 0
v 0.1 2.1 -0.1
v 0.2 1 0.4
v 0.2 1 0.3
v 0.2 1.1 0.4
v 0.2 1.1 0.3
v 0.2 1.7 0
v 0.2 1.7 -0.1
v 0.2 1.8 0
v 0.2 1.8 -0.1
v 0.2 2.3 0
v 0.2 2.3 -0.1
v 0.2 2.4 0
v 0.2 2.4 -0.1
v 0.3 1 -0.3
v 0.3 1 -0.4
v 0.3 1 -0.8
v 0.3 1 -0.9
v 0.3 1.1 -0.3
v 0.3 1.1 -0.4
v 0.3 1.1 -0.8
v 0.3 1.1 -0.9
v 0.3 1.8 0
v 0.3 1.8 -0.1
v 0.3 1.9 0
v 0.3 1.9 -0.1
v 0.3 2.2 0
v 0.3 2.2 -0.1
v 0.3 2.3 0
v 0.3 2.3 -0.1
v 0.4 1 0.2
v 0.4 1 0.1
v 0.4 1.1 0.2
v 0.4 1.1 0.1
v 0.5 1 0.5
v 0.5 1 0.4
v 0.5 1.1 0.5
v 0.5 1.1 0.4
v 0.5 1.6 0
v 0.5 1.6 -0.1
v 0.5 1.8 0
v 0.5 1.8 -0.1
v 0.5 2 0
v 0.5 2 -0.1
v 0.5 2.1 0
v 0.5 2.1 -0.1
v 0.5 2.3 0
v 0.5 2.3 -0.1
v 0.5 2.5 0
v 0.5 2.5 -0.1
v 0.6 1 -0.2
v 0.6 1 -0.3
v 0.6 1.1 -0.2
v 0.6 1.1 -0.3
v 0.7 1 -0.9
v 0.7 1 -1
v 0.7 1.1 -0.9
v 0.7 1.1 -1
v 0.7 1.8 0
v 0.7 1.8 -0.1
v 0.7 1.9 0
v 0.7 1.9 -0.1
v 0.7 2.2 0
v 0.7 2.2 -0.1
v 0.7 2.3 0
v 0.7 2.3 -0.1
v 0.8 1.7 0
v 0.8 1.7 -0.1
v 0.8 1.8 0
v 0.8 1.8 -0.1
v 0.8 2 0
v 0.8 2 -0.1
v 0.8 2.1 0
v 0.8 2.1 -0.1
v 0.8 2.3 0
v 0.8 2.3 -0.1
v 0.8 2.4 0
v 0.8 2.4 -0.1
v -0.9 1 1
v -0.9 1 0.9
v -0.9 1.1 1
v -0.9 1.1 0.9
v -0.8 1 0.1
v -0.8 1 0
v -0.8 1.1 0.1
v -0.8 1.1 0
v -0.7 1 0.7
v -0.7 1 0.6
v -0.7 1.1 0.7
v -0.7 1.1 0.6
v -0.4 1 -0.4
v -0.4 1 -0.5
v -0.4 1.1 -0.4
v -0.4 1.1 -0.5
v -0.3 1 -0.3
v -0.3 1 -0.4
v -0.3 1.1 -0.3
v -0.3 1.1 -0.4
v -0.2 1 0.3
v -0.2 1 0.2
v -0.2 1 -0.5
v -0.2 1 -0.6
v -0.2 1.1 0.3
v -0.2 1.1 0.2
v -0.2 1.1 -0.5
v -0.2 1.1 -0.6
v -0.1 1 0.4
v -0.1 1 0.3
v -0.1 1.1 0.4
v -0.1 1.1 0.3
v 0.1 1 0.3
v 0.1 1 0.2
v 0.1 1.1 0.3
v 0.1 1.1 0.2
v 0.1 1.2 0
v 0.1 1.2 -0.1
v 0.1 1.8 0
v 0.1 1.8 -0.1
v 0.2 1 0.2
v 0.2 1 0.1
v 0.2 1 -0.2
v 0.2 1 -0.3
v 0.2 1.1 0.2
v 0.2 1.1 0.1
v 0.2 1.1 -0.2
v 0.2 1.1 -0.3
v 0.2 1.2 0.1
v 0.2 1.2 -0.2
v 0.2 1.8 0
v 0.2 1.8 -0.1
v 0.2 1.9 0
v 0.2 1.9 -0.1
v 0.3 1 0.4
v 0.3 1 0.3
v 0.3 1 0.1
v 0.3 1 -0.2
v 0.3 1.1 0.4
v 0.3 1.1 0.3
v 0.3 1.1 0.1
v 0.3 1.1 -0.2
v 0.3 1.7 0
v 0.3 1.7 -0.1
v 0.3 1.8 0
v 0.3 1.8 -0.1
v 0.3 1.9 0
v 0.3 1.9 -0.1
v 0.3 2 0
v 0.3 2 -0.1
v 0.3 2.1 0
v 0.3 2.1 -0.1
v 0.3 2.3 0
v 0.3 2.3 -0.1
v 0.3 2.4 0
v 0.3 2.4 -0.1
v 0.4 1 -0.3
v 0.4 1 -0.4
v 0.4 1 -0.8
v 0.4 1 -0.9
v 0.4 1.1 -0.3
v 0.4 1.1 -0.4
v 0.4 1.1 -0.8
v 0.4 1.1 -0.9
v 0.4 1.8 0
v 0.4 1.8 -0.1
v 0.4 1.9 0
v 0.4 1.9 -0.1
v 0.4 2.2 0
v 0.4 2.2 -0.1
v 0.4 2.3 0
v 0.4 2.3 -0.1
v 0.5 1 0.2
v 0.5 1 0.1
v 0.5 1.1 0.2
v 0.5 1.1 0.1
v 0.6 1 0.5
v 0.6 1 0.4
v 0.6 1.1 0.5
v 0.6 1.1 0.4
v 0.6 1.6 0
v 0.6 1.6 -0.1
v 0.6 1.8 0
v 0.6 1.8 -0.1
v 0.6 2 0
v 0.6 2 -0.1
v 0.6 2.1 0
v 0.6 2.1 -0.1
v 0.6 2.3 0
v 0.6 2.3 -0.1
v 0.6 2.5 0
v 0.6 2.5 -0.1
v 0.7 1 -0.2
v 0.7 1 -0.3
v 0.7 1.1 -0.2
v 0.7 1.1 -0.3
v 0.8 1 -0.9
v 0.8 1 -1
v 0.8 1.1 -0.9
v 0.8 1.1 -1
v 0.8 1.8 0
v 0.8 1.8 -0.1
v 0.8 1.9 0
v 0.8 1.9 -0.1
v 0.8 2.2 0
v 0.8 2.2 -0.1
v 0.8 2.3 0
v 0.8 2.3 -0.1
v 0.9 1.7 0
v 0.9 1.7 -0.1
v 0.9 1.8 0
v 0.9 1.8 -0.1
v 0.9 2.3 0
v 0.9 2.3 -0.1
v 0.9 2.4 0
v 0.9 2.4 -0.1
v 1 2 0
v 1 2 -0.1
v 1 2.1 0
v 1 2.1 -0.1
v -1 1 1
v -1 1.1 1
v -0.9 1 1
v -0.9 1.1 1
v -0.8 1 0.7
v -0.8 1.1 0.7
v -0.7 1 0.7
v -0.7 1.1 0.7
v 0.5 1 0.5
v 0.5 1.1 0.5
v 0.6 1 0.5
v 0.6 1.1 0.5
v -0.2 1 0.4
v -0.2 1.1 0.4
v -0.1 1 0.4
v -0.1 1.1 0.4
v 0.2 1 0.4
v 0.2 1.1 0.4
v 0.3 1 0.4
v 0.3 1.1 0.4
v -0.3 1 0.3
v -0.3 1.1 0.3
v -0.2 1 0.3
v -0.2 1.1 0.3
v 0 1 0.3
v 0 1.1 0.3
v 0.1 1 0.3
v 0.1 1.1 0.3
v -0.2 1 0.2
v -0.2 1.1 0.2
v 0 1 0.2
v 0 1.1 0.2
v 0.1 1 0.2
v 0.1 1.1 0.2
v 0.2 1 0.2
v 0.2 1.1 0.2
v 0.4 1 0.2
v 0.4 1.1 0.2
v 0.5 1 0.2
v 0.5 1.1 0.2
v -0.9 1 0.1
v -0.9 1.1 0.1
v -0.8 1 0.1
v -0.8 1.1 0.1
v -0.3 1 0.1
v -0.3 1.1 0.1
v -0.2 1 0.1
v -0.2 1.1 0.1
v -0.2 1.2 0.1
v 0.2 1 0.1
v 0.2 1.1 0.1
v 0.2 1.2 0.1
v 0.3 1 0.1
v 0.3 1.1 0.1
v -0.1 1.2 0
v -0.1 1.8 0
v 0 1.8 0
v 0 1.9 0
v 0.1 1.2 0
v 0.1 1.8 0
v 0.1 1.9 0
v 0.1 2 0
v 0.1 2.1 0
v 0.2 1.7 0
v 0.2 1.8 0
v 0.2 1.9 0
v 0.2 2.3 0
v 0.2 2.4 0
v 0.3 1.7 0
v 0.3 1.8 0
v 0.3 1.9 0
v 0.3 2 0
v 0.3 2.1 0
v 0.3 2.2 0
v 0.3 2.3 0
v 0.3 2.4 0
v 0.4 1.8 0
v 0.4 1.9 0
v 0.4 2.2 0
v 0.4 2.3 0
v 0.5 1.6 0
v 0.5 1.8 0
v 0.5 2 0
v 0.5 2.1 0
v 0.5 2.3 0
v 0.5 2.5 0
v 0.6 1.6 0
v 0.6 1.8 0
v 0.6 2 0
v 0.6 2.1 0
v 0.6 2.3 0
v 0.6 2.5 0
v 0.7 1.8 0
v 0.7 1.9 0
v 0.7 2.2 0
v 0.7 2.3 0
v 0.8 1.7 0
v 0.8 1.8 0
v 0.8 1.9 0
v 0.8 2 0
v 0.8 2.1 0
v 0.8 2.2 0
v 0.8 2.3 0
v 0.8 2.4 0
v 0.9 1.7 0
v 0.9 1.8 0
v 0.9 2.3 0
v 0.9 2.4 0
v 1 2 0
v 1 2.1 0
v 0.6 1 -0.2
v 0.6 1.1 -0.2
v 0.7 1 -0.2
v 0.7 1.1 -0.2
v -0.4 1 -0.3
v -0.4 1.1 -0.3
v -0.3 1 -0.3
v -0.3 1.1 -0.3
v 0.3 1 -0.3
v 0.3 1.1 -0.3
v 0.4 1 -0.3
v 0.4 1.1 -0.3
v -0.5 1 -0.4
v -0.5 1.1 -0.4
v -0.4 1 -0.4
v -0.4 1.1 -0.4
v -0.3 1 -0.5
v -0.3 1.1 -0.5
v -0.2 1 -0.5
v -0.2 1.1 -0.5
v 0.3 1 -0.8
v 0.3 1.1 -0.8
v 0.4 1 -0.8
v 0.4 1.1 -0.8
v 0.7 1 -0.9
v 0.7 1.1 -0.9
v 0.8 1 -0.9
v 0.8 1.1 -0.9
v -1 1 0.9
v -1 1.1 0.9
v -0.9 1 0.9
v -0.9 1.1 0.9
v -0.8 1 0.6
v -0.8 1.1 0.6
v -0.7 1 0.6
v -0.7 1.1 0.6
v 0.5 1 0.4
v 0.5 1.1 0.4
v 0.6 1 0.4
v 0.6 1.1 0.4
v -0.2 1 0.3
v -0.2 1.1 0.3
v -0.1 1 0.3
v -0.1 1.1 0.3
v 0.2 1 0.3
v 0.2 1.1 0.3
v 0.3 1 0.3
v 0.3 1.1 0.3
v -0.3 1 0.2
v -0.3 1.1 0.2
v -0.2 1 0.2
v -0.2 1.1 0.2
v 0.4 1 0.1
v 0.4 1.1 0.1
v 0.5 1 0.1
v 0.5 1.1 0.1
v -0.9 1 0
v -0.9 1.1 0
v -0.8 1 0
v -0.8 1.1 0
v -0.1 1.2 -0.1
v -0.1 1.8 -0.1
v 0 1.8 -0.1
v 0 1.9 -0.1
v 0.1 1.2 -0.1
v 0.1 1.8 -0.1
v 0.1 1.9 -0.1
v 0.1 2 -0.1
v 0.1 2.1 -0.1
v 0.2 1.7 -0.1
v 0.2 1.8 -0.1
v 0.2 1.9 -0.1
v 0.2 2.3 -0.1
v 0.2 2.4 -0.1
v 0.3 1.7 -0.1
v 0.3 1.8 -0.1
v 0.3 1.9 -0.1
v 0.3 2 -0.1
v 0.3 2.1 -0.1
v 0.3 2.2 -0.1
v 0.3 2.3 -0.1
v 0.3 2.4 -0.1
v 0.4 1.8 -0.1
v 0.4 1.9 -0.1
v 0.4 2.2 -0.1
v 0.4 2.3 -0.1
v 0.5 1.6 -0.1
v 0.5 1.8 -0.1
v 0.5 2 -0.1
v 0.5 2.1 -0.1
v 0.5 2.3 -0.1
v 0.5 2.5 -0.1
v 0.6 1.6 -0.1
v 0.6 1.8 -0.1
v 0.6 2 -0.1
v 0.6 2.1 -0.1
v 0.6 2.3 -0.1
v 0.6 2.5 -0.1
v 0.7 1.8 -0.1
v 0.7 1.9 -0.1
v 0.7 2.2 -0.1
v 0.7 2.3 -0.1
v 0.8 1.7 -0.1
v 0.8 1.8 -0.1
v 0.8 1.9 -0.1
v 0.8 2 -0.1
v 0.8 2.1 -0.1
v 0.8 2.2 -0.1
v 0.8 2.3 -0.1
v 0.8 2.4 -0.1
v 0.9 1.7 -0.1
v 0.9 1.8 -0.1
v 0.9 2.3 -0.1
v 0.9 2.4 -0.1
v 1 2 -0.1
v 1 2.1 -0.1
v -0.3 1 -0.2
v -0.3 1.1 -0.2
v -0.2 1 -0.2
v -0.2 1.1 -0.2
v -0.2 1.2 -0.2
v 0.2 1 -0.2
v 0.2 1.1 -0.2
v 0.2 1.2 -0.2
v 0.3 1 -0.2
v 0.3 1.1 -0.2
v -0.2 1 -0.3
v -0.2 1.1 -0.3
v 0.2 1 -0.3
v 0.2 1.1 -0.3
v 0.6 1 -0.3
v 0.6 1.1 -0.3
v 0.7 1 -0.3
v 0.7 1.1 -0.3
v -0.4 1 -0.4
v -0.4 1.1 -0.4
v -0.3 1 -0.4
v -0.3 1.1 -0.4
v 0.3 1 -0.4
v 0.3 1.1 -0.4
v 0.4 1 -0.4
v 0.4 1.1 -0.4
v -0.5 1 -0.5
v -0.5 1.1 -0.5
v -0.4 1 -0.5
v -0.4 1.1 -0.5
v -0.3 1 -0.6
v -0.3 1.1 -0.6
v -0.2 1 -0.6
v -0.2 1.1 -0.6
v 0.3 1 -0.9
v 0.3 1.1 -0.9
v 0.4 1 -0.9
v 0.4 1.1 -0.9
v 0.7 1 -1
v 0.7 1.1 -1
v 0.8 1 -1
v 0.8 1.1 -1
v -1 1 1
v -0.9 1 1
v -1 1 0.9
v -0.9 1 0.9
v -0.8 1 0.7
v -0.7 1 0.7
v -0.8 1 0.6
v -0.7 1 0.6
v 0.5 1 0.5
v 0.6 1 0.5
v -0.2 1 0.4
v -0.1 1 0.4
v 0.2 1 0.4
v 0.3 1 0.4
v 0.5 1 0.4
v 0.6 1 0.4
v -0.3 1 0.3
v -0.2 1 0.3
v -0.1 1 0.3
v 0 1 0.3
v 0.1 1 0.3
v 0.2 1 0.3
v 0.3 1 0.3
v -0.3 1 0.2
v -0.2 1 0.2
v 0 1 0.2
v 0.1 1 0.2
v 0.2 1 0.2
v 0.4 1 0.2
v 0.5 1 0.2
v -0.9 1 0.1
v -0.8 1 0.1
v -0.3 1 0.1
v -0.2 1 0.1
v 0.2 1 0.1
v 0.3 1 0.1
v 0.4 1 0.1
v 0.5 1 0.1
v -0.9 1 0
v -0.8 1 0
v -0.3 1 -0.2
v -0.2 1 -0.2
v 0.2 1 -0.2
v 0.3 1 -0.2
v 0.6 1 -0.2
v 0.7 1 -0.2
v -0.4 1 -0.3
v -0.3 1 -0.3
v -0.2 1 -0.3
v 0.2 1 -0.3
v 0.3 1 -0.3
v 0.4 1 -0.3
v 0.6 1 -0.3
v 0.7 1 -0.3
v -0.5 1 -0.4
v -0.4 1 -0.4
v -0.3 1 -0.4
v 0.3 1 -0.4
v 0.4 1 -0.4
v -0.5 1 -0.5
v -0.4 1 -0.5
v -0.3 1 -0.5
v -0.2 1 -0.5
v -0.3 1 -0.6
v -0.2 1 -0.6
v 0.3 1 -0.8
v 0.4 1 -0.8
v 0.3 1 -0.9
v 0.4 1 -0.9
v 0.7 1 -0.9
v 0.8 1 -0.9
v 0.7 1 -1
v 0.8 1 -1
v 0.5 1.6 0
v 0.6 1.6 0
v 0.5 1.6 -0.1
v 0.6 1.6 -0.1
v 0.2 1.7 0
v 0.3 1.7 0
v 0.8 1.7 0
v 0.9 1.7 0
v 0.2 1.7 -0.1
v 0.3 1.7 -0.1
v 0.8 1.7 -0.1
v 0.9 1.7 -0.1
v 0.1 1.8 0
v 0.2 1.8 0
v 0.3 1.8 0
v 0.4 1.8 0
v 0.7 1.8 0
v 0.8 1.8 0
v 0.1 1.8 -0.1
v 0.2 1.8 -0.1
v 0.3 1.8 -0.1
v 0.4 1.8 -0.1
v 0.7 1.8 -0.1
v 0.8 1.8 -0.1
v 0.2 1.9 0
v 0.3 1.9 0
v 0.2 1.9 -0.1
v 0.3 1.9 -0.1
v 0.5 2 0
v 0.6 2 0
v 0.8 2 0
v 1 2 0
v 0.5 2 -0.1
v 0.6 2 -0.1
v 0.8 2 -0.1
v 1 2 -0.1
v 0.3 2.2 0
v 0.4 2.2 0
v 0.7 2.2 0
v 0.8 2.2 0
v 0.3 2.2 -0.1
v 0.4 2.2 -0.1
v 0.7 2.2 -0.1
v 0.8 2.2 -0.1
v 0.2 2.3 0
v 0.3 2.3 0
v 0.5 2.3 0
v 0.6 2.3 0
v 0.8 2.3 0
v 0.9 2.3 0
v 0.2 2.3 -0.1
v 0.3 2.3 -0.1
v 0.5 2.3 -0.1
v 0.6 2.3 -0.1
v 0.8 2.3 -0.1
v 0.9 2.3 -0.1
v -1 1.1 1
v -0.9 1.1 1
v -1 1.1 0.9
v -0.9 1.1 0.9
v -0.8 1.1 0.7
v -0.7 1.1 0.7
v -0.8 1.1 0.6
v -0.7 1.1 0.6
v 0.5 1.1 0.5
v 0.6 1.1 0.5
v -0.2 1.1 0.4
v -0.1 1.1 0.4
v 0.2 1.1 0.4
v 0.3 1.1 0.4
v 0.5 1.1 0.4
v 0.6 1.1 0.4
v -0.3 1.1 0.3
v -0.2 1.1 0.3
v -0.1 1.1 0.3
v 0 1.1 0.3
v 0.1 1.1 0.3
v 0.2 1.1 0.3
v 0.3 1.1 0.3
v -0.3 1.1 0.2
v -0.2 1.1 0.2
v 0 1.1 0.2
v 0.1 1.1 0.2
v 0.2 1.1 0.2
v 0.4 1.1 0.2
v 0.5 1.1 0.2
v -0.9 1.1 0.1
v -0.8 1.1 0.1
v -0.3 1.1 0.1
v -0.2 1.1 0.1
v 0.2 1.1 0.1
v 0.3 1.1 0.1
v 0.4 1.1 0.1
v 0.5 1.1 0.1
v -0.9 1.1 0
v -0.8 1.1 0
v -0.3 1.1 -0.2
v -0.2 1.1 -0.2
v 0.2 1.1 -0.2
v 0.3 1.1 -0.2
v 0.6 1.1 -0.2
v 0.7 1.1 -0.2
v -0.4 1.1 -0.3
v -0.3 1.1 -0.3
v -0.2 1.1 -0.3
v 0.2 1.1 -0.3
v 0.3 1.1 -0.3
v 0.4 1.1 -0.3
v 0.6 1.1 -0.3
v 0.7 1.1 -0.3
v -0.5 1.1 -0.4
v -0.4 1.1 -0.4
v -0.3 1.1 -0.4
v 0.3 1.1 -0.4
v 0.4 1.1 -0.4
v -0.5 1.1 -0.5
v -0.4 1.1 -0.5
v -0.3 1.1 -0.5
v -0.2 1.1 -0.5
v -0.3 1.1 -0.6
v -0.2 1.1 -0.6
v 0.3 1.1 -0.8
v 0.4 1.1 -0.8
v 0.3 1.1 -0.9
v 0.4 1.1 -0.9
v 0.7 1.1 -0.9
v 0.8 1.1 -0.9
v 0.7 1.1 -1
v 0.8 1.1 -1
v -0.2 1.2 0.1
v 0.2 1.2 0.1
v -0.1 1.2 0
v 0.1 1.2 0
v -0.1 1.2 -0.1
v 0.1 1.2 -0.1
v -0.2 1.2 -0.2
v 0.2 1.2 -0.2
v -0.1 1.8 0
v 0 1.8 0
v 0.2 1.8 0
v 0.3 1.8 0
v 0.5 1.8 0
v 0.6 1.8 0
v 0.8 1.8 0
v 0.9 1.8 0
v -0.1 1.8 -0.1
v 0 1.8 -0.1
v 0.2 1.8 -0.1
v 0.3 1.8 -0.1
v 0.5 1.8 -0.1
v 0.6 1.8 -0.1
v 0.8 1.8 -0.1
v 0.9 1.8 -0.1
v 0 1.9 0
v 0.1 1.9 0
v 0.3 1.9 0
v 0.4 1.9 0
v 0.7 1.9 0
v 0.8 1.9 0
v 0 1.9 -0.1
v 0.1 1.9 -0.1
v 0.3 1.9 -0.1
v 0.4 1.9 -0.1
v 0.7 1.9 -0.1
v 0.8 1.9 -0.1
v 0.1 2.1 0
v 0.3 2.1 0
v 0.5 2.1 0
v 0.6 2.1 0
v 0.8 2.1 0
v 1 2.1 0
v 0.1 2.1 -0.1
v 0.3 2.1 -0.1
v 0.5 2.1 -0.1
v 0.6 2.1 -0.1
v 0.8 2.1 -0.1
v 1 2.1 -0.1
v 0.3 2.3 0
v 0.4 2.3 0
v 0.7 2.3 0
v 0.8 2.3 0
v 0.3 2.3 -0.1
v 0.4 2.3 -0.1
v 0.7 2.3 -0.1
v 0.8 2.3 -0.1
v 0.2 2.4 0
v 0.3 2.4 0
v 0.8 2.4 0
v 0.9 2.4 0
v 0.2 2.4 -0.1
v 0.3 2.4 -0.1
v 0.8 2.4 -0.1
v 0.9 2.4 -0.1
v 0.5 2.5 0
v 0.6 2.5 0
v 0.5 2.5 -0.1
v 0.6 2.5 -0.1

# faces
f 3/3/1 2/3/1 1/3/1
f 4/3/1 2/3/1 3/3/1
f 7/2/1 6/2/1 5/2/1
f 8/2/1 6/2/1 7/2/1
f 11/1/1 10/1/1 9/1/1
f 12/1/1 10/1/1 11/1/1
f 15/3/1 14/3/1 13/3/1
f 16/3/1 14/3/1 15/3/1
f 19/2/1 18/2/1 17/2/1
f 20/2/1 18/2/1 19/2/1
f 27/3/1 22/3/1 21/3/1
f 28/3/1 22/3/1 27/3/1
f 29/2/1 24/2/1 23/2/1
f 30/2/1 24/2/1 29/2/1
f 31/1/1 26/1/1 25/1/1
f 32/1/1 26/1/1 31/1/1
f 39/2/1 34/2/1 33/2/1
f 40/2/1 34/2/1 39/2/1
f 41/2/1 36/2/1 35/2/1
f 42/2/1 36/2/1 41/2/1
f 43/2/1 38/2/1 37/2/1
f 44/2/1 38/2/1 43/2/1
f 45/2/1 43/2/1 42/2/1
f 46/2/1 43/2/1 45/2/1
f 49/2/1 48/2/1 47/2/1
f 50/2/1 48/2/1 49/2/1
f 53/2/1 52/2/1 51/2/1
f 54/2/1 52/2/1 53/2/1
f 57/2/1 56/2/1 55/2/1
f 58/2/1 56/2/1 57/2/1
f 61/2/1 60/2/1 59/2/1
f 62/2/1 60/2/1 61/2/1
f 63/1/1 62/1/1 61/1/1
f 64/1/1 62/1/1 63/1/1
f 67/1/1 66/1/1 65/1/1
f 68/1/1 66/1/1 67/1/1
f 71/1/1 70/1/1 69/1/1
f 72/1/1 70/1/1 71/1/1
f 75/1/1 74/1/1 73/1/1
f 76/1/1 74/1/1 75/1/1
f 81/3/1 78/3/1 77/3/1
f 82/3/1 78/3/1 81/3/1
f 83/2/1 80/2/1 79/2/1
f 84/2/1 80/2/1 83/2/1
f 87/1/1 86/1/1 85/1/1
f 88/1/1 86/1/1 87/1/1
f 91/1/1 90/1/1 89/1/1
f 92/1/1 90/1/1 91/1/1
f 95/2/1 94/2/1 93/2/1
f 96/2/1 94/2/1 95/2/1
f 99/3/1 98/3/1 97/3/1
f 100/3/1 98/3/1 99/3/1
f 103/1/1 102/1/1 101/1/1
f 104/1/1 102/1/1 103/1/1
f 107/3/1 106/3/1 105/3/1
f 108/3/1 106/3/1 107/3/1
f 111/1/1 110/1/1 109/1/1
f 112/1/1 110/1/1 111/1/1
f 115/1/1 114/1/1 113/1/1
f 116/1/1 114/1/1 115/1/1
f 119/3/1 118/3/1 117/3/1
f 120/3/1 118/3/1 119/3/1
f 123/1/1 122/1/1 121/1/1
f 124/1/1 122/1/1 123/1/1
f 127/1/1 126/1/1 125/1/1
f 128/1/1 126/1/1 127/1/1
f 131/1/1 130/1/1 129/1/1
f 132/1/1 130/1/1 131/1/1
f 135/1/1 134/1/1 133/1/1
f 136/1/1 134/1/1 135/1/1
f 139/1/1 138/1/1 137/1/1
f 140/1/1 138/1/1 139/1/1
f 141/3/2 142/3/2 143/3/2
f 143/3/2 142/3/2 144/3/2
f 145/2/2 146/2/2 147/2/2
f 147/2/2 146/2/2 148/2/2
f 149/1/2 150/1/2 151/1/2
f 151/1/2 150/1/2 152/1/2
f 153/3/2 154/3/2 155/3/2
f 155/3/2 154/3/2 156/3/2
f 157/2/2 158/2/2 159/2/2
f 159/2/2 158/2/2 160/2/2
f 161/3/2 162/3/2 165/3/2
f 165/3/2 162/3/2 166/3/2
f 163/1/2 164/1/2 167/1/2
f 167/1/2 164/1/2 168/1/2
f 169/2/2 170/2/2 171/2/2
f 171/2/2 170/2/2 172/2/2
f 173/2/2 174/2/2 175/2/2
f 175/2/2 174/2/2 176/2/2
f 177/2/2 178/2/2 179/2/2
f 179/2/2 178/2/2 180/2/2
f 181/2/2 182/2/2 185/2/2
f 185/2/2 182/2/2 186/2/2
f 183/2/2 184/2/2 187/2/2
f 187/2/2 184/2/2 188/2/2
f 186/2/2 187/2/2 189/2/2
f 189/2/2 187/2/2 190/2/2
f 191/2/2 192/2/2 193/2/2
f 193/2/2 192/2/2 194/2/2
f 195/1/2 196/1/2 199/1/2
f 199/1/2 196/1/2 200/1/2
f 197/2/2 198/2/2 201/2/2
f 201/2/2 198/2/2 202/2/2
f 203/1/2 204/1/2 205/1/2
f 205/1/2 204/1/2 206/1/2
f 207/2/2 208/2/2 209/2/2
f 209/2/2 208/2/2 210/2/2
f 209/1/2 210/1/2 211/1/2
f 211/1/2 210/1/2 212/1/2
f 213/1/2 214/1/2 215/1/2
f 215/1/2 214/1/2 216/1/2
f 217/3/2 218/3/2 221/3/2
f 221/3/2 218/3/2 222/3/2
f 219/2/2 220/2/2 223/2/2
f 223/2/2 220/2/2 224/2/2
f 225/1/2 226/1/2 227/1/2
f 227/1/2 226/1/2 228/1/2
f 229/1/2 230/1/2 231/1/2
f 231/1/2 230/1/2 232/1/2
f 233/2/2 234/2/2 235/2/2
f 235/2/2 234/2/2 236/2/2
f 237/3/2 238/3/2 239/3/2
f 239/3/2 238/3/2 240/3/2
f 241/1/2 242/1/2 243/1/2
f 243/1/2 242/1/2 244/1/2
f 245/3/2 246/3/2 247/3/2
f 247/3/2 246/3/2 248/3/2
f 249/1/2 250/1/2 251/1/2
f 251/1/2 250/1/2 252/1/2
f 253/1/2 254/1/2 255/1/2
f 255/1/2 254/1/2 256/1/2
f 257/3/2 258/3/2 259/3/2
f 259/3/2 258/3/2 260/3/2
f 261/1/2 262/1/2 263/1/2
f 263/1/2 262/1/2 264/1/2
f 265/1/2 266/1/2 267/1/2
f 267/1/2 266/1/2 268/1/2
f 269/1/2 270/1/2 271/1/2
f 271/1/2 270/1/2 272/1/2
f 273/1/2 274/1/2 275/1/2
f 275/1/2 274/1/2 276/1/2
f 277/1/2 278/1/2 279/1/2
f 279/1/2 278/1/2 280/1/2
f 283/3/3 282/3/3 281/3/3
f 284/3/3 282/3/3 283/3/3
f 287/1/3 286/1/3 285/1/3
f 288/1/3 286/1/3 287/1/3
f 291/3/3 290/3/3 289/3/3
f 292/3/3 290/3/3 291/3/3
f 295/2/3 294/2/3 293/2/3
f 296/2/3 294/2/3 295/2/3
f 299/1/3 298/1/3 297/1/3
f 300/1/3 298/1/3 299/1/3
f 303/3/3 302/3/3 301/3/3
f 304/3/3 302/3/3 303/3/3
f 307/2/3 306/2/3 305/2/3
f 308/2/3 306/2/3 307/2/3
f 311/2/3 310/2/3 309/2/3
f 312/2/3 310/2/3 311/2/3
f 315/2/3 314/2/3 313/2/3
f 316/2/3 314/2/3 315/2/3
f 319/2/3 318/2/3 317/2/3
f 320/2/3 318/2/3 319/2/3
f 323/2/3 322/2/3 321/2/3
f 324/2/3 322/2/3 323/2/3
f 327/2/3 326/2/3 325/2/3
f 328/2/3 326/2/3 327/2/3
f 331/2/3 329/2/3 328/2/3
f 332/2/3 329/2/3 331/2/3
f 333/2/3 331/2/3 330/2/3
f 334/2/3 331/2/3 333/2/3
f 337/2/3 336/2/3 335/2/3
f 339/2/3 337/2/3 335/2/3
f 339/2/3 338/2/3 337/2/3
f 340/2/3 338/2/3 339/2/3
f 341/2/3 338/2/3 340/2/3
f 345/2/3 341/2/3 340/2/3
f 345/2/3 342/2/3 341/2/3
f 346/2/3 342/2/3 345/2/3
f 349/1/3 345/1/3 344/1/3
f 350/1/3 345/1/3 349/1/3
f 351/2/3 342/2/3 346/2/3
f 352/1/3 343/1/3 342/1/3
f 352/2/3 342/2/3 351/2/3
f 353/1/3 343/1/3 352/1/3
f 355/1/3 348/1/3 347/1/3
f 356/1/3 348/1/3 355/1/3
f 357/1/3 351/1/3 350/1/3
f 358/1/3 351/1/3 357/1/3
f 359/1/3 355/1/3 354/1/3
f 360/1/3 355/1/3 359/1/3
f 367/1/3 362/1/3 361/1/3
f 368/1/3 362/1/3 367/1/3
f 369/3/3 364/3/3 363/3/3
f 370/3/3 364/3/3 369/3/3
f 371/1/3 366/1/3 365/1/3
f 372/1/3 366/1/3 371/1/3
f 378/1/3 374/1/3 373/1/3
f 379/1/3 374/1/3 378/1/3
f 382/1/3 376/1/3 375/1/3
f 383/1/3 376/1/3 382/1/3
f 385/1/3 378/1/3 377/1/3
f 386/1/3 378/1/3 385/1/3
f 387/1/3 384/1/3 383/1/3
f 388/1/3 384/1/3 387/1/3
f 389/1/3 381/1/3 380/1/3
f 390/1/3 381/1/3 389/1/3
f 393/1/3 392/1/3 391/1/3
f 394/1/3 392/1/3 393/1/3
f 397/2/3 396/2/3 395/2/3
f 398/2/3 396/2/3 397/2/3
f 401/3/3 400/3/3 399/3/3
f 402/3/3 400/3/3 401/3/3
f 405/3/3 404/3/3 403/3/3
f 406/3/3 404/3/3 405/3/3
f 409/1/3 408/1/3 407/1/3
f 410/1/3 408/1/3 409/1/3
f 413/2/3 412/2/3 411/2/3
f 414/2/3 412/2/3 413/2/3
f 417/3/3 416/3/3 415/3/3
f 418/3/3 416/3/3 417/3/3
f 419/3/4 420/3/4 421/3/4
f 421/3/4 420/3/4 422/3/4
f 423/1/4 424/1/4 425/1/4
f 425/1/4 424/1/4 426/1/4
f 427/3/4 428/3/4 429/3/4
f 429/3/4 428/3/4 430/3/4
f 431/2/4 432/2/4 433/2/4
f 433/2/4 432/2/4 434/2/4
f 435/1/4 436/1/4 437/1/4
f 437/1/4 436/1/4 438/1/4
f 439/3/4 440/3/4 441/3/4
f 441/3/4 440/3/4 442/3/4
f 443/2/4 444/2/4 445/2/4
f 445/2/4 444/2/4 446/2/4
f 447/2/4 448/2/4 449/2/4
f 449/2/4 448/2/4 450/2/4
f 451/2/4 452/2/4 453/2/4
f 451/2/4 453/2/4 455/2/4
f 453/2/4 454/2/4 455/2/4
f 455/2/4 454/2/4 456/2/4
f 456/2/4 454/2/4 457/2/4
f 456/2/4 457/2/4 461/2/4
f 457/2/4 458/2/4 461/2/4
f 461/2/4 458/2/4 462/2/4
f 460/1/4 461/1/4 465/1/4
f 465/1/4 461/1/4 466/1/4
f 462/2/4 458/2/4 467/2/4
f 458/1/4 459/1/4 468/1/4
f 467/2/4 458/2/4 468/2/4
f 468/1/4 459/1/4 469/1/4
f 463/1/4 464/1/4 471/1/4
f 471/1/4 464/1/4 472/1/4
f 466/1/4 467/1/4 473/1/4
f 473/1/4 467/1/4 474/1/4
f 470/1/4 471/1/4 475/1/4
f 475/1/4 471/1/4 476/1/4
f 477/1/4 478/1/4 483/1/4
f 483/1/4 478/1/4 484/1/4
f 479/3/4 480/3/4 485/3/4
f 485/3/4 480/3/4 486/3/4
f 481/1/4 482/1/4 487/1/4
f 487/1/4 482/1/4 488/1/4
f 489/1/4 490/1/4 494/1/4
f 494/1/4 490/1/4 495/1/4
f 491/1/4 492/1/4 498/1/4
f 498/1/4 492/1/4 499/1/4
f 493/1/4 494/1/4 501/1/4
f 501/1/4 494/1/4 502/1/4
f 499/1/4 500/1/4 503/1/4
f 503/1/4 500/1/4 504/1/4
f 496/1/4 497/1/4 505/1/4
f 505/1/4 497/1/4 506/1/4
f 507/2/4 508/2/4 509/2/4
f 509/2/4 508/2/4 510/2/4
f 510/2/4 511/2/4 513/2/4
f 513/2/4 511/2/4 514/2/4
f 512/2/4 513/2/4 515/2/4
f 515/2/4 513/2/4 516/2/4
f 517/2/4 518/2/4 519/2/4
f 519/2/4 518/2/4 520/2/4
f 521/1/4 522/1/4 523/1/4
f 523/1/4 522/1/4 524/1/4
f 525/2/4 526/2/4 527/2/4
f 527/2/4 526/2/4 528/2/4
f 529/3/4 530/3/4 531/3/4
f 531/3/4 530/3/4 532/3/4
f 533/3/4 534/3/4 535/3/4
f 535/3/4 534/3/4 536/3/4
f 537/1/4 538/1/4 539/1/4
f 539/1/4 538/1/4 540/1/4
f 541/2/4 542/2/4 543/2/4
f 543/2/4 542/2/4 544/2/4
f 545/3/4 546/3/4 547/3/4
f 547/3/4 546/3/4 548/3/4
f 551/3/5 550/3/5 549/3/5
f 552/3/5 550/3/5 551/3/5
f 555/1/5 554/1/5 553/1/5
f 556/1/5 554/1/5 555/1/5
f 563/3/5 558/3/5 557/3/5
f 564/3/5 558/3/5 563/3/5
f 566/2/5 560/2/5 559/2/5
f 567/2/5 560/2/5 566/2/5
f 570/1/5 562/1/5 561/1/5
f 571/1/5 562/1/5 570/1/5
f 572/3/5 566/3/5 565/3/5
f 573/3/5 566/3/5 572/3/5
f 574/2/5 569/2/5 568/2/5
f 575/2/5 569/2/5 574/2/5
f 582/2/5 576/2/5 575/2/5
f 582/2/5 574/2/5 573/2/5
f 582/2/5 575/2/5 574/2/5
f 583/2/5 576/2/5 582/2/5
f 585/2/5 578/2/5 577/2/5
f 586/2/5 578/2/5 585/2/5
f 587/2/5 580/2/5 579/2/5
f 588/2/5 580/2/5 587/2/5
f 589/2/5 584/2/5 583/2/5
f 589/2/5 582/2/5 581/2/5
f 589/2/5 583/2/5 582/2/5
f 590/2/5 584/2/5 589/2/5
f 591/2/5 584/2/5 590/2/5
f 592/2/5 584/2/5 591/2/5
f 597/2/5 591/2/5 590/2/5
f 598/2/5 591/2/5 597/2/5
f 601/1/5 594/1/5 593/1/5
f 602/1/5 594/1/5 601/1/5
f 604/2/5 596/2/5 595/2/5
f 605/2/5 596/2/5 604/2/5
f 606/3/5 600/3/5 599/3/5
f 607/3/5 600/3/5 606/3/5
f 608/3/5 604/3/5 603/3/5
f 609/3/5 604/3/5 608/3/5
f 612/1/5 611/1/5 610/1/5
f 613/1/5 611/1/5 612/1/5
f 616/2/5 615/2/5 614/2/5
f 617/2/5 615/2/5 616/2/5
f 620/3/5 619/3/5 618/3/5
f 621/3/5 619/3/5 620/3/5
f 624/1/5 623/1/5 622/1/5
f 625/1/5 623/1/5 624/1/5
f 630/1/5 627/1/5 626/1/5
f 631/1/5 627/1/5 630/1/5
f 632/1/5 629/1/5 628/1/5
f 633/1/5 629/1/5 632/1/5
f 640/2/5 635/2/5 634/2/5
f 641/2/5 635/2/5 640/2/5
f 642/1/5 637/1/5 636/1/5
f 643/1/5 637/1/5 642/1/5
f 644/1/5 639/1/5 638/1/5
f 645/1/5 639/1/5 644/1/5
f 648/2/5 647/2/5 646/2/5
f 649/2/5 647/2/5 648/2/5
f 654/3/5 651/3/5 650/3/5
f 655/3/5 651/3/5 654/3/5
f 656/1/5 653/1/5 652/1/5
f 657/1/5 653/1/5 656/1/5
f 662/1/5 659/1/5 658/1/5
f 663/1/5 659/1/5 662/1/5
f 664/1/5 661/1/5 660/1/5
f 665/1/5 661/1/5 664/1/5
f 672/1/5 667/1/5 666/1/5
f 673/1/5 667/1/5 672/1/5
f 674/1/5 669/1/5 668/1/5
f 675/1/5 669/1/5 674/1/5
f 676/1/5 671/1/5 670/1/5
f 677/1/5 671/1/5 676/1/5
f 678/3/6 679/3/6 680/3/6
f 680/3/6 679/3/6 681/3/6
f 682/1/6 683/1/6 684/1/6
f 684/1/6 683/1/6 685/1/6
f 686/3/6 687/3/6 692/3/6
f 692/3/6 687/3/6 693/3/6
f 688/2/6 689/2/6 695/2/6
f 695/2/6 689/2/6 696/2/6
f 690/1/6 691/1/6 699/1/6
f 699/1/6 691/1/6 700/1/6
f 694/3/6 695/3/6 701/3/6
f 701/3/6 695/3/6 702/3/6
f 697/2/6 698/2/6 703/2/6
f 703/2/6 698/2/6 704/2/6
f 704/2/6 705/2/6 711/2/6
f 702/2/6 703/2/6 711/2/6
f 703/2/6 704/2/6 711/2/6
f 711/2/6 705/2/6 712/2/6
f 706/2/6 707/2/6 714/2/6
f 714/2/6 707/2/6 715/2/6
f 708/2/6 709/2/6 716/2/6
f 716/2/6 709/2/6 717/2/6
f 710/2/6 711/2/6 718/2/6
f 718/2/6 711/2/6 719/2/6
f 712/2/6 713/2/6 720/2/6
f 720/2/6 713/2/6 721/2/6
f 719/2/6 720/2/6 726/2/6
f 726/2/6 720/2/6 727/2/6
f 722/1/6 723/1/6 730/1/6
f 730/1/6 723/1/6 731/1/6
f 724/2/6 725/2/6 733/2/6
f 733/2/6 725/2/6 734/2/6
f 728/3/6 729/3/6 735/3/6
f 735/3/6 729/3/6 736/3/6
f 732/3/6 733/3/6 737/3/6
f 737/3/6 733/3/6 738/3/6
f 739/1/6 740/1/6 741/1/6
f 741/1/6 740/1/6 742/1/6
f 743/2/6 744/2/6 745/2/6
f 745/2/6 744/2/6 746/2/6
f 747/3/6 748/3/6 749/3/6
f 749/3/6 748/3/6 750/3/6
f 751/2/6 752/2/6 753/2/6
f 753/2/6 752/2/6 754/2/6
f 751/2/6 753/2/6 755/2/6
f 754/2/6 752/2/6 756/2/6
f 751/2/6 755/2/6 757/2/6
f 755/2/6 756/2/6 757/2/6
f 756/2/6 752/2/6 758/2/6
f 757/2/6 756/2/6 758/2/6
f 759/2/6 760/2/6 767/2/6
f 767/2/6 760/2/6 768/2/6
f 761/1/6 762/1/6 769/1/6
f 769/1/6 762/1/6 770/1/6
f 763/1/6 764/1/6 771/1/6
f 771/1/6 764/1/6 772/1/6
f 765/1/6 766/1/6 773/1/6
f 773/1/6 766/1/6 774/1/6
f 775/2/6 776/2/6 781/2/6
f 781/2/6 776/2/6 782/2/6
f 777/1/6 778/1/6 783/1/6
f 783/1/6 778/1/6 784/1/6
f 779/1/6 780/1/6 785/1/6
f 785/1/6 780/1/6 786/1/6
f 787/1/6 788/1/6 793/1/6
f 793/1/6 788/1/6 794/1/6
f 789/3/6 790/3/6 795/3/6
f 795/3/6 790/3/6 796/3/6
f 791/1/6 792/1/6 797/1/6
f 797/1/6 792/1/6 798/1/6
f 799/1/6 800/1/6 803/1/6
f 803/1/6 800/1/6 804/1/6
f 801/1/6 802/1/6 805/1/6
f 805/1/6 802/1/6 806/1/6
f 807/1/6 808/1/6 811/1/6
f 811/1/6 808/1/6 812/1/6
f 809/1/6 810/1/6 813/1/6
f 813/1/6 810/1/6 814/1/6
f 815/1/6 816/1/6 817/1/6
f 817/1/6 816/1/6 818/1/6
