# MagicaVoxel @ Ephtracy

# group
o 

# material
mtllib lampeCentral.mtl
usemtl palette

# normals
vn -1 0 0
vn 1 0 0
vn 0 0 1
vn 0 0 -1
vn 0 -1 0
vn 0 1 0

# texcoords
vt 0.224609 0.5
vt 0.412109 0.5
vt 0.974609 0.5

# verts
v -0.4 4.9 0.2
v -0.4 4.9 -0.3
v -0.4 5 0.2
v -0.4 5 -0.3
v -0.3 4.9 0.3
v -0.3 4.9 0.2
v -0.3 4.9 -0.3
v -0.3 4.9 -0.4
v -0.3 5 0.3
v -0.3 5 0.2
v -0.3 5 -0.3
v -0.3 5 -0.4
v -0.3 5.1 0.2
v -0.3 5.1 -0.3
v -0.3 5.4 0.1
v -0.3 5.4 -0.2
v -0.3 5.5 0.1
v -0.3 5.5 -0.2
v -0.2 5.1 0.1
v -0.2 5.1 -0.2
v -0.2 5.2 0.1
v -0.2 5.2 -0.2
v -0.2 5.3 0.1
v -0.2 5.3 -0.2
v -0.2 5.4 0.2
v -0.2 5.4 0.1
v -0.2 5.4 -0.2
v -0.2 5.4 -0.3
v -0.2 5.5 0.2
v -0.2 5.5 0.1
v -0.2 5.5 -0.2
v -0.2 5.5 -0.3
v -0.2 5.7 0.1
v -0.2 5.7 -0.2
v -0.2 6 0.1
v -0.2 6 -0.2
v -0.1 4.9 8.9407e-008
v -0.1 4.9 -0.0999999
v -0.1 5.1 8.9407e-008
v -0.1 5.1 -0.0999999
v -0.1 5.2 8.9407e-008
v -0.1 5.2 -0.0999999
v -0.1 5.3 8.9407e-008
v -0.1 5.3 -0.0999999
v -0.1 5.4 8.9407e-008
v -0.1 5.4 -0.0999999
v -0.1 5.7 8.9407e-008
v -0.1 5.7 -0.0999999
v 0.1 5 0.1
v 0.1 5 -0.2
v 0.1 5.1 0.1
v 0.1 5.1 -0.2
v 0.1 5.4 0.1
v 0.1 5.4 -0.2
v 0.1 5.5 0.1
v 0.1 5.5 -0.2
v 0.2 4.9 0.2
v 0.2 4.9 -0.3
v 0.2 5 0.2
v 0.2 5 -0.3
v -0.3 4.9 0.2
v -0.3 4.9 -0.3
v -0.3 5 0.2
v -0.3 5 -0.3
v -0.2 5 0.1
v -0.2 5 -0.2
v -0.2 5.1 0.1
v -0.2 5.1 -0.2
v -0.2 5.4 0.1
v -0.2 5.4 -0.2
v -0.2 5.5 0.1
v -0.2 5.5 -0.2
v 0 4.9 8.9407e-008
v 0 4.9 -0.0999999
v 0 5.1 8.9407e-008
v 0 5.1 -0.0999999
v 0 5.2 8.9407e-008
v 0 5.2 -0.0999999
v 0 5.3 8.9407e-008
v 0 5.3 -0.0999999
v 0 5.4 8.9407e-008
v 0 5.4 -0.0999999
v 0 5.7 8.9407e-008
v 0 5.7 -0.0999999
v 0.1 5.1 0.1
v 0.1 5.1 -0.2
v 0.1 5.2 0.1
v 0.1 5.2 -0.2
v 0.1 5.3 0.1
v 0.1 5.3 -0.2
v 0.1 5.4 0.2
v 0.1 5.4 0.1
v 0.1 5.4 -0.2
v 0.1 5.4 -0.3
v 0.1 5.5 0.2
v 0.1 5.5 0.1
v 0.1 5.5 -0.2
v 0.1 5.5 -0.3
v 0.1 5.7 0.1
v 0.1 5.7 -0.2
v 0.1 6 0.1
v 0.1 6 -0.2
v 0.2 4.9 0.3
v 0.2 4.9 0.2
v 0.2 4.9 -0.3
v 0.2 4.9 -0.4
v 0.2 5 0.3
v 0.2 5 0.2
v 0.2 5 -0.3
v 0.2 5 -0.4
v 0.2 5.1 0.2
v 0.2 5.1 -0.3
v 0.2 5.4 0.1
v 0.2 5.4 -0.2
v 0.2 5.5 0.1
v 0.2 5.5 -0.2
v 0.3 4.9 0.2
v 0.3 4.9 -0.3
v 0.3 5 0.2
v 0.3 5 -0.3
v -0.3 4.9 0.3
v -0.3 5 0.3
v 0.2 4.9 0.3
v 0.2 5 0.3
v -0.4 4.9 0.2
v -0.4 5 0.2
v -0.3 4.9 0.2
v -0.3 5 0.2
v -0.3 5.1 0.2
v -0.2 5.4 0.2
v -0.2 5.5 0.2
v 0.1 5.4 0.2
v 0.1 5.5 0.2
v 0.2 4.9 0.2
v 0.2 5 0.2
v 0.2 5.1 0.2
v 0.3 4.9 0.2
v 0.3 5 0.2
v -0.3 5.4 0.1
v -0.3 5.5 0.1
v -0.2 5.1 0.1
v -0.2 5.2 0.1
v -0.2 5.3 0.1
v -0.2 5.4 0.1
v -0.2 5.5 0.1
v -0.2 5.7 0.1
v -0.2 6 0.1
v 0.1 5.1 0.1
v 0.1 5.2 0.1
v 0.1 5.3 0.1
v 0.1 5.4 0.1
v 0.1 5.5 0.1
v 0.1 5.7 0.1
v 0.1 6 0.1
v 0.2 5.4 0.1
v 0.2 5.5 0.1
v -0.1 4.9 8.9407e-008
v -0.1 5.1 8.9407e-008
v -0.1 5.2 8.9407e-008
v -0.1 5.3 8.9407e-008
v -0.1 5.4 8.9407e-008
v -0.1 5.7 8.9407e-008
v 0 4.9 8.9407e-008
v 0 5.1 8.9407e-008
v 0 5.2 8.9407e-008
v 0 5.3 8.9407e-008
v 0 5.4 8.9407e-008
v 0 5.7 8.9407e-008
v -0.2 5 -0.2
v -0.2 5.1 -0.2
v -0.2 5.4 -0.2
v -0.2 5.5 -0.2
v 0.1 5 -0.2
v 0.1 5.1 -0.2
v 0.1 5.4 -0.2
v 0.1 5.5 -0.2
v -0.3 4.9 -0.3
v -0.3 5 -0.3
v 0.2 4.9 -0.3
v 0.2 5 -0.3
v -0.3 4.9 0.2
v -0.3 5 0.2
v 0.2 4.9 0.2
v 0.2 5 0.2
v -0.2 5 0.1
v -0.2 5.1 0.1
v -0.2 5.4 0.1
v -0.2 5.5 0.1
v 0.1 5 0.1
v 0.1 5.1 0.1
v 0.1 5.4 0.1
v 0.1 5.5 0.1
v -0.1 4.9 -0.0999999
v -0.1 5.1 -0.0999999
v -0.1 5.2 -0.0999999
v -0.1 5.3 -0.0999999
v -0.1 5.4 -0.0999999
v -0.1 5.7 -0.0999999
v 0 4.9 -0.0999999
v 0 5.1 -0.0999999
v 0 5.2 -0.0999999
v 0 5.3 -0.0999999
v 0 5.4 -0.0999999
v 0 5.7 -0.0999999
v -0.3 5.4 -0.2
v -0.3 5.5 -0.2
v -0.2 5.1 -0.2
v -0.2 5.2 -0.2
v -0.2 5.3 -0.2
v -0.2 5.4 -0.2
v -0.2 5.5 -0.2
v -0.2 5.7 -0.2
v -0.2 6 -0.2
v 0.1 5.1 -0.2
v 0.1 5.2 -0.2
v 0.1 5.3 -0.2
v 0.1 5.4 -0.2
v 0.1 5.5 -0.2
v 0.1 5.7 -0.2
v 0.1 6 -0.2
v 0.2 5.4 -0.2
v 0.2 5.5 -0.2
v -0.4 4.9 -0.3
v -0.4 5 -0.3
v -0.3 4.9 -0.3
v -0.3 5 -0.3
v -0.3 5.1 -0.3
v -0.2 5.4 -0.3
v -0.2 5.5 -0.3
v 0.1 5.4 -0.3
v 0.1 5.5 -0.3
v 0.2 4.9 -0.3
v 0.2 5 -0.3
v 0.2 5.1 -0.3
v 0.3 4.9 -0.3
v 0.3 5 -0.3
v -0.3 4.9 -0.4
v -0.3 5 -0.4
v 0.2 4.9 -0.4
v 0.2 5 -0.4
v -0.3 4.9 0.3
v 0.2 4.9 0.3
v -0.4 4.9 0.2
v -0.3 4.9 0.2
v 0.2 4.9 0.2
v 0.3 4.9 0.2
v -0.1 4.9 8.9407e-008
v 0 4.9 8.9407e-008
v -0.1 4.9 -0.0999999
v 0 4.9 -0.0999999
v -0.4 4.9 -0.3
v -0.3 4.9 -0.3
v 0.2 4.9 -0.3
v 0.3 4.9 -0.3
v -0.3 4.9 -0.4
v 0.2 4.9 -0.4
v -0.3 5 0.2
v 0.2 5 0.2
v -0.2 5 0.1
v 0.1 5 0.1
v -0.2 5 -0.2
v 0.1 5 -0.2
v -0.3 5 -0.3
v 0.2 5 -0.3
v -0.2 5.1 0.1
v 0.1 5.1 0.1
v -0.1 5.1 8.9407e-008
v 0 5.1 8.9407e-008
v -0.1 5.1 -0.0999999
v 0 5.1 -0.0999999
v -0.2 5.1 -0.2
v 0.1 5.1 -0.2
v -0.2 5.3 0.1
v 0.1 5.3 0.1
v -0.1 5.3 8.9407e-008
v 0 5.3 8.9407e-008
v -0.1 5.3 -0.0999999
v 0 5.3 -0.0999999
v -0.2 5.3 -0.2
v 0.1 5.3 -0.2
v -0.2 5.4 0.2
v 0.1 5.4 0.2
v -0.3 5.4 0.1
v -0.2 5.4 0.1
v 0.1 5.4 0.1
v 0.2 5.4 0.1
v -0.3 5.4 -0.2
v -0.2 5.4 -0.2
v 0.1 5.4 -0.2
v 0.2 5.4 -0.2
v -0.2 5.4 -0.3
v 0.1 5.4 -0.3
v -0.2 5.7 0.1
v 0.1 5.7 0.1
v -0.1 5.7 8.9407e-008
v 0 5.7 8.9407e-008
v -0.1 5.7 -0.0999999
v 0 5.7 -0.0999999
v -0.2 5.7 -0.2
v 0.1 5.7 -0.2
v -0.3 5 0.3
v 0.2 5 0.3
v -0.4 5 0.2
v -0.3 5 0.2
v 0.2 5 0.2
v 0.3 5 0.2
v -0.4 5 -0.3
v -0.3 5 -0.3
v 0.2 5 -0.3
v 0.3 5 -0.3
v -0.3 5 -0.4
v 0.2 5 -0.4
v -0.3 5.1 0.2
v 0.2 5.1 0.2
v -0.2 5.1 0.1
v 0.1 5.1 0.1
v -0.2 5.1 -0.2
v 0.1 5.1 -0.2
v -0.3 5.1 -0.3
v 0.2 5.1 -0.3
v -0.2 5.2 0.1
v 0.1 5.2 0.1
v -0.1 5.2 8.9407e-008
v 0 5.2 8.9407e-008
v -0.1 5.2 -0.0999999
v 0 5.2 -0.0999999
v -0.2 5.2 -0.2
v 0.1 5.2 -0.2
v -0.2 5.4 0.1
v 0.1 5.4 0.1
v -0.1 5.4 8.9407e-008
v 0 5.4 8.9407e-008
v -0.1 5.4 -0.0999999
v 0 5.4 -0.0999999
v -0.2 5.4 -0.2
v 0.1 5.4 -0.2
v -0.2 5.5 0.2
v 0.1 5.5 0.2
v -0.3 5.5 0.1
v -0.2 5.5 0.1
v 0.1 5.5 0.1
v 0.2 5.5 0.1
v -0.3 5.5 -0.2
v -0.2 5.5 -0.2
v 0.1 5.5 -0.2
v 0.2 5.5 -0.2
v -0.2 5.5 -0.3
v 0.1 5.5 -0.3
v -0.2 6 0.1
v 0.1 6 0.1
v -0.2 6 -0.2
v 0.1 6 -0.2

# faces
f 3/3/1 2/3/1 1/3/1
f 4/3/1 2/3/1 3/3/1
f 9/3/1 6/3/1 5/3/1
f 10/3/1 6/3/1 9/3/1
f 11/3/1 8/3/1 7/3/1
f 12/3/1 8/3/1 11/3/1
f 13/3/1 11/3/1 10/3/1
f 14/3/1 11/3/1 13/3/1
f 17/3/1 16/3/1 15/3/1
f 18/3/1 16/3/1 17/3/1
f 21/3/1 20/3/1 19/3/1
f 22/3/1 20/3/1 21/3/1
f 26/3/1 24/3/1 23/3/1
f 27/3/1 24/3/1 26/3/1
f 29/3/1 26/3/1 25/3/1
f 30/3/1 26/3/1 29/3/1
f 31/3/1 28/3/1 27/3/1
f 32/3/1 28/3/1 31/3/1
f 35/1/1 34/1/1 33/1/1
f 36/1/1 34/1/1 35/1/1
f 39/2/1 38/2/1 37/2/1
f 40/2/1 38/2/1 39/2/1
f 43/3/1 42/3/1 41/3/1
f 44/3/1 42/3/1 43/3/1
f 47/1/1 46/1/1 45/1/1
f 48/1/1 46/1/1 47/1/1
f 51/3/1 50/3/1 49/3/1
f 52/3/1 50/3/1 51/3/1
f 55/3/1 54/3/1 53/3/1
f 56/3/1 54/3/1 55/3/1
f 59/3/1 58/3/1 57/3/1
f 60/3/1 58/3/1 59/3/1
f 61/3/2 62/3/2 63/3/2
f 63/3/2 62/3/2 64/3/2
f 65/3/2 66/3/2 67/3/2
f 67/3/2 66/3/2 68/3/2
f 69/3/2 70/3/2 71/3/2
f 71/3/2 70/3/2 72/3/2
f 73/2/2 74/2/2 75/2/2
f 75/2/2 74/2/2 76/2/2
f 77/3/2 78/3/2 79/3/2
f 79/3/2 78/3/2 80/3/2
f 81/1/2 82/1/2 83/1/2
f 83/1/2 82/1/2 84/1/2
f 85/3/2 86/3/2 87/3/2
f 87/3/2 86/3/2 88/3/2
f 89/3/2 90/3/2 92/3/2
f 92/3/2 90/3/2 93/3/2
f 91/3/2 92/3/2 95/3/2
f 95/3/2 92/3/2 96/3/2
f 93/3/2 94/3/2 97/3/2
f 97/3/2 94/3/2 98/3/2
f 99/1/2 100/1/2 101/1/2
f 101/1/2 100/1/2 102/1/2
f 103/3/2 104/3/2 107/3/2
f 107/3/2 104/3/2 108/3/2
f 105/3/2 106/3/2 109/3/2
f 109/3/2 106/3/2 110/3/2
f 108/3/2 109/3/2 111/3/2
f 111/3/2 109/3/2 112/3/2
f 113/3/2 114/3/2 115/3/2
f 115/3/2 114/3/2 116/3/2
f 117/3/2 118/3/2 119/3/2
f 119/3/2 118/3/2 120/3/2
f 123/3/3 122/3/3 121/3/3
f 124/3/3 122/3/3 123/3/3
f 127/3/3 126/3/3 125/3/3
f 128/3/3 126/3/3 127/3/3
f 132/3/3 131/3/3 130/3/3
f 133/3/3 131/3/3 132/3/3
f 135/3/3 129/3/3 128/3/3
f 136/3/3 129/3/3 135/3/3
f 137/3/3 135/3/3 134/3/3
f 138/3/3 135/3/3 137/3/3
f 144/3/3 140/3/3 139/3/3
f 145/3/3 140/3/3 144/3/3
f 148/3/3 142/3/3 141/3/3
f 149/3/3 142/3/3 148/3/3
f 150/3/3 144/3/3 143/3/3
f 151/3/3 144/3/3 150/3/3
f 153/1/3 147/1/3 146/1/3
f 154/1/3 147/1/3 153/1/3
f 155/3/3 152/3/3 151/3/3
f 156/3/3 152/3/3 155/3/3
f 163/2/3 158/2/3 157/2/3
f 164/2/3 158/2/3 163/2/3
f 165/3/3 160/3/3 159/3/3
f 166/3/3 160/3/3 165/3/3
f 167/1/3 162/1/3 161/1/3
f 168/1/3 162/1/3 167/1/3
f 173/3/3 170/3/3 169/3/3
f 174/3/3 170/3/3 173/3/3
f 175/3/3 172/3/3 171/3/3
f 176/3/3 172/3/3 175/3/3
f 179/3/3 178/3/3 177/3/3
f 180/3/3 178/3/3 179/3/3
f 181/3/4 182/3/4 183/3/4
f 183/3/4 182/3/4 184/3/4
f 185/3/4 186/3/4 189/3/4
f 189/3/4 186/3/4 190/3/4
f 187/3/4 188/3/4 191/3/4
f 191/3/4 188/3/4 192/3/4
f 193/2/4 194/2/4 199/2/4
f 199/2/4 194/2/4 200/2/4
f 195/3/4 196/3/4 201/3/4
f 201/3/4 196/3/4 202/3/4
f 197/1/4 198/1/4 203/1/4
f 203/1/4 198/1/4 204/1/4
f 205/3/4 206/3/4 210/3/4
f 210/3/4 206/3/4 211/3/4
f 207/3/4 208/3/4 214/3/4
f 214/3/4 208/3/4 215/3/4
f 209/3/4 210/3/4 216/3/4
f 216/3/4 210/3/4 217/3/4
f 212/1/4 213/1/4 219/1/4
f 219/1/4 213/1/4 220/1/4
f 217/3/4 218/3/4 221/3/4
f 221/3/4 218/3/4 222/3/4
f 223/3/4 224/3/4 225/3/4
f 225/3/4 224/3/4 226/3/4
f 228/3/4 229/3/4 230/3/4
f 230/3/4 229/3/4 231/3/4
f 226/3/4 227/3/4 233/3/4
f 233/3/4 227/3/4 234/3/4
f 232/3/4 233/3/4 235/3/4
f 235/3/4 233/3/4 236/3/4
f 237/3/4 238/3/4 239/3/4
f 239/3/4 238/3/4 240/3/4
f 244/3/5 242/3/5 241/3/5
f 245/3/5 242/3/5 244/3/5
f 249/2/5 248/2/5 247/2/5
f 250/2/5 248/2/5 249/2/5
f 251/3/5 244/3/5 243/3/5
f 252/3/5 244/3/5 251/3/5
f 253/3/5 246/3/5 245/3/5
f 254/3/5 246/3/5 253/3/5
f 255/3/5 253/3/5 252/3/5
f 256/3/5 253/3/5 255/3/5
f 259/3/5 258/3/5 257/3/5
f 260/3/5 258/3/5 259/3/5
f 261/3/5 259/3/5 257/3/5
f 262/3/5 258/3/5 260/3/5
f 263/3/5 261/3/5 257/3/5
f 263/3/5 262/3/5 261/3/5
f 264/3/5 258/3/5 262/3/5
f 264/3/5 262/3/5 263/3/5
f 267/3/5 266/3/5 265/3/5
f 268/3/5 266/3/5 267/3/5
f 269/3/5 267/3/5 265/3/5
f 270/3/5 266/3/5 268/3/5
f 271/3/5 269/3/5 265/3/5
f 271/3/5 270/3/5 269/3/5
f 272/3/5 266/3/5 270/3/5
f 272/3/5 270/3/5 271/3/5
f 275/3/5 274/3/5 273/3/5
f 276/3/5 274/3/5 275/3/5
f 277/3/5 275/3/5 273/3/5
f 278/3/5 274/3/5 276/3/5
f 279/3/5 277/3/5 273/3/5
f 279/3/5 278/3/5 277/3/5
f 280/3/5 274/3/5 278/3/5
f 280/3/5 278/3/5 279/3/5
f 284/3/5 282/3/5 281/3/5
f 285/3/5 282/3/5 284/3/5
f 287/3/5 284/3/5 283/3/5
f 288/3/5 284/3/5 287/3/5
f 289/3/5 286/3/5 285/3/5
f 290/3/5 286/3/5 289/3/5
f 291/3/5 289/3/5 288/3/5
f 292/3/5 289/3/5 291/3/5
f 295/1/5 294/1/5 293/1/5
f 296/1/5 294/1/5 295/1/5
f 297/1/5 295/1/5 293/1/5
f 298/1/5 294/1/5 296/1/5
f 299/1/5 297/1/5 293/1/5
f 299/1/5 298/1/5 297/1/5
f 300/1/5 294/1/5 298/1/5
f 300/1/5 298/1/5 299/1/5
f 301/3/6 302/3/6 304/3/6
f 304/3/6 302/3/6 305/3/6
f 303/3/6 304/3/6 307/3/6
f 307/3/6 304/3/6 308/3/6
f 305/3/6 306/3/6 309/3/6
f 309/3/6 306/3/6 310/3/6
f 308/3/6 309/3/6 311/3/6
f 311/3/6 309/3/6 312/3/6
f 313/3/6 314/3/6 315/3/6
f 315/3/6 314/3/6 316/3/6
f 313/3/6 315/3/6 317/3/6
f 316/3/6 314/3/6 318/3/6
f 313/3/6 317/3/6 319/3/6
f 317/3/6 318/3/6 319/3/6
f 318/3/6 314/3/6 320/3/6
f 319/3/6 318/3/6 320/3/6
f 321/3/6 322/3/6 323/3/6
f 323/3/6 322/3/6 324/3/6
f 321/3/6 323/3/6 325/3/6
f 324/3/6 322/3/6 326/3/6
f 321/3/6 325/3/6 327/3/6
f 325/3/6 326/3/6 327/3/6
f 326/3/6 322/3/6 328/3/6
f 327/3/6 326/3/6 328/3/6
f 329/3/6 330/3/6 331/3/6
f 331/3/6 330/3/6 332/3/6
f 329/3/6 331/3/6 333/3/6
f 332/3/6 330/3/6 334/3/6
f 329/3/6 333/3/6 335/3/6
f 333/3/6 334/3/6 335/3/6
f 334/3/6 330/3/6 336/3/6
f 335/3/6 334/3/6 336/3/6
f 337/3/6 338/3/6 340/3/6
f 340/3/6 338/3/6 341/3/6
f 339/3/6 340/3/6 343/3/6
f 343/3/6 340/3/6 344/3/6
f 341/3/6 342/3/6 345/3/6
f 345/3/6 342/3/6 346/3/6
f 344/3/6 345/3/6 347/3/6
f 347/3/6 345/3/6 348/3/6
f 349/1/6 350/1/6 351/1/6
f 351/1/6 350/1/6 352/1/6
