# MagicaVoxel @ Ephtracy

# group
o 

# material
mtllib appareil.mtl
usemtl palette

# normals
vn -1 0 0
vn 1 0 0
vn 0 0 1
vn 0 0 -1
vn 0 -1 0
vn 0 1 0

# texcoords
vt 0.916016 0.5
vt 0.970703 0.5
vt 0.986328 0.5
vt 0.990234 0.5

# verts
v -0.4 1 0.1
v -0.4 1 -0.1
v -0.4 1.1 0.1
v -0.4 1.1 -0.1
v -0.4 1.5 0.1
v -0.4 1.5 -0.1
v -0.4 1.7 0.1
v -0.4 1.7 -0.1
v -0.3 1.5 -0.1
v -0.3 1.5 -0.2
v -0.3 1.6 -0.1
v -0.3 1.6 -0.2
v -0.1 1.2 0.4
v -0.1 1.2 0.3
v -0.1 1.2 0.2
v -0.1 1.2 0.1
v -0.1 1.4 0.4
v -0.1 1.4 0.3
v -0.1 1.4 0.2
v -0.1 1.4 0.1
v -0.1 1.7 0.1
v -0.1 1.7 0
v -0.1 1.8 0.1
v -0.1 1.8 0
v 0 1.1 0.4
v 0 1.1 0.3
v 0 1.1 0.2
v 0 1.1 0.1
v 0 1.2 0.4
v 0 1.2 0.3
v 0 1.2 0.2
v 0 1.2 0.1
v 0 1.4 0.4
v 0 1.4 0.3
v 0 1.4 0.2
v 0 1.4 0.1
v 0 1.5 0.4
v 0 1.5 0.3
v 0 1.5 0.2
v 0 1.5 0.1
v 0.2 1.2 0.3
v 0.2 1.2 0.2
v 0.2 1.2 0.1
v 0.2 1.4 0.3
v 0.2 1.4 0.2
v 0.2 1.4 0.1
v 0.3 1.7 0.1
v 0.3 1.7 0
v 0.3 1.8 0.1
v 0.3 1.8 0
v -0.1 1.5 -0.1
v -0.1 1.5 -0.2
v -0.1 1.6 -0.1
v -0.1 1.6 -0.2
v 0 1.2 0.3
v 0 1.2 0.2
v 0 1.2 0.1
v 0 1.4 0.3
v 0 1.4 0.2
v 0 1.4 0.1
v 0 1.7 0.1
v 0 1.7 0
v 0 1.8 0.1
v 0 1.8 0
v 0.2 1.1 0.4
v 0.2 1.1 0.3
v 0.2 1.1 0.2
v 0.2 1.1 0.1
v 0.2 1.2 0.4
v 0.2 1.2 0.3
v 0.2 1.2 0.2
v 0.2 1.2 0.1
v 0.2 1.4 0.4
v 0.2 1.4 0.3
v 0.2 1.4 0.2
v 0.2 1.4 0.1
v 0.2 1.5 0.4
v 0.2 1.5 0.3
v 0.2 1.5 0.2
v 0.2 1.5 0.1
v 0.3 1.2 0.4
v 0.3 1.2 0.3
v 0.3 1.2 0.2
v 0.3 1.2 0.1
v 0.3 1.4 0.4
v 0.3 1.4 0.3
v 0.3 1.4 0.2
v 0.3 1.4 0.1
v 0.4 1.7 0.1
v 0.4 1.7 0
v 0.4 1.8 0.1
v 0.4 1.8 0
v 0.5 1 0.1
v 0.5 1 -0.1
v 0.5 1.1 0.1
v 0.5 1.1 -0.1
v 0.5 1.5 0.1
v 0.5 1.5 -0.1
v 0.5 1.7 0.1
v 0.5 1.7 -0.1
v -0.1 1.2 0.4
v -0.1 1.4 0.4
v 0 1.1 0.4
v 0 1.2 0.4
v 0 1.4 0.4
v 0 1.5 0.4
v 0.2 1.1 0.4
v 0.2 1.2 0.4
v 0.2 1.4 0.4
v 0.2 1.5 0.4
v 0.3 1.2 0.4
v 0.3 1.4 0.4
v -0.4 1 0.1
v -0.4 1.1 0.1
v -0.4 1.5 0.1
v -0.4 1.7 0.1
v -0.3 1.6 0.1
v -0.3 1.7 0.1
v -0.2 1.6 0.1
v -0.2 1.7 0.1
v -0.1 1.2 0.1
v -0.1 1.4 0.1
v -0.1 1.7 0.1
v -0.1 1.8 0.1
v 0 1.1 0.1
v 0 1.2 0.1
v 0 1.4 0.1
v 0 1.5 0.1
v 0 1.7 0.1
v 0 1.8 0.1
v 0.1 1.5 0.1
v 0.1 1.7 0.1
v 0.2 1.1 0.1
v 0.2 1.2 0.1
v 0.2 1.4 0.1
v 0.2 1.5 0.1
v 0.3 1.2 0.1
v 0.3 1.4 0.1
v 0.3 1.5 0.1
v 0.3 1.7 0.1
v 0.3 1.8 0.1
v 0.4 1.7 0.1
v 0.4 1.8 0.1
v 0.5 1 0.1
v 0.5 1.1 0.1
v 0.5 1.5 0.1
v 0.5 1.7 0.1
v 0 1.2 0.3
v 0 1.4 0.3
v 0.2 1.2 0.3
v 0.2 1.4 0.3
v -0.1 1.7 0
v -0.1 1.8 0
v 0 1.7 0
v 0 1.8 0
v 0.3 1.7 0
v 0.3 1.8 0
v 0.4 1.7 0
v 0.4 1.8 0
v -0.4 1 -0.1
v -0.4 1.1 -0.1
v -0.4 1.5 -0.1
v -0.4 1.7 -0.1
v -0.3 1.5 -0.1
v -0.3 1.6 -0.1
v -0.1 1.5 -0.1
v -0.1 1.6 -0.1
v 0.1 1.5 -0.1
v 0.1 1.7 -0.1
v 0.3 1.5 -0.1
v 0.3 1.7 -0.1
v 0.5 1 -0.1
v 0.5 1.1 -0.1
v 0.5 1.5 -0.1
v 0.5 1.7 -0.1
v -0.3 1.5 -0.2
v -0.3 1.6 -0.2
v -0.1 1.5 -0.2
v -0.1 1.6 -0.2
v -0.4 1 0.1
v 0.5 1 0.1
v -0.4 1 -0.1
v 0.5 1 -0.1
v 0 1.1 0.4
v 0.2 1.1 0.4
v 0 1.1 0.3
v 0.2 1.1 0.3
v 0 1.1 0.2
v 0.2 1.1 0.2
v 0 1.1 0.1
v 0.2 1.1 0.1
v -0.1 1.2 0.4
v 0 1.2 0.4
v 0.2 1.2 0.4
v 0.3 1.2 0.4
v -0.1 1.2 0.3
v 0 1.2 0.3
v 0.2 1.2 0.3
v 0.3 1.2 0.3
v -0.1 1.2 0.2
v 0 1.2 0.2
v 0.2 1.2 0.2
v 0.3 1.2 0.2
v -0.1 1.2 0.1
v 0 1.2 0.1
v 0.2 1.2 0.1
v 0.3 1.2 0.1
v 0 1.4 0.3
v 0.2 1.4 0.3
v 0 1.4 0.2
v 0.2 1.4 0.2
v 0 1.4 0.1
v 0.2 1.4 0.1
v -0.3 1.5 -0.1
v -0.1 1.5 -0.1
v -0.3 1.5 -0.2
v -0.1 1.5 -0.2
v 0 1.2 0.3
v 0.2 1.2 0.3
v 0 1.2 0.2
v 0.2 1.2 0.2
v 0 1.2 0.1
v 0.2 1.2 0.1
v -0.1 1.4 0.4
v 0 1.4 0.4
v 0.2 1.4 0.4
v 0.3 1.4 0.4
v -0.1 1.4 0.3
v 0 1.4 0.3
v 0.2 1.4 0.3
v 0.3 1.4 0.3
v -0.1 1.4 0.2
v 0 1.4 0.2
v 0.2 1.4 0.2
v 0.3 1.4 0.2
v -0.1 1.4 0.1
v 0 1.4 0.1
v 0.2 1.4 0.1
v 0.3 1.4 0.1
v 0 1.5 0.4
v 0.2 1.5 0.4
v 0 1.5 0.3
v 0.2 1.5 0.3
v 0 1.5 0.2
v 0.2 1.5 0.2
v 0 1.5 0.1
v 0.1 1.5 0.1
v 0.2 1.5 0.1
v -0.3 1.6 -0.1
v -0.1 1.6 -0.1
v -0.3 1.6 -0.2
v -0.1 1.6 -0.2
v -0.4 1.7 0.1
v -0.3 1.7 0.1
v -0.2 1.7 0.1
v -0.1 1.7 0.1
v 0 1.7 0.1
v 0.1 1.7 0.1
v 0.3 1.7 0.1
v 0.4 1.7 0.1
v 0.5 1.7 0.1
v -0.3 1.7 0
v -0.2 1.7 0
v -0.1 1.7 0
v 0 1.7 0
v 0.3 1.7 0
v 0.4 1.7 0
v -0.4 1.7 -0.1
v 0.1 1.7 -0.1
v 0.3 1.7 -0.1
v 0.5 1.7 -0.1
v -0.1 1.8 0.1
v 0 1.8 0.1
v 0.3 1.8 0.1
v 0.4 1.8 0.1
v -0.1 1.8 0
v 0 1.8 0
v 0.3 1.8 0
v 0.4 1.8 0

# faces
f 3/2/1 2/2/1 1/2/1
f 4/2/1 2/2/1 3/2/1
f 5/3/1 4/3/1 3/3/1
f 6/3/1 4/3/1 5/3/1
f 7/2/1 6/2/1 5/2/1
f 8/2/1 6/2/1 7/2/1
f 11/4/1 10/4/1 9/4/1
f 12/4/1 10/4/1 11/4/1
f 17/1/1 14/1/1 13/1/1
f 18/3/1 15/3/1 14/3/1
f 18/1/1 14/1/1 17/1/1
f 19/2/1 16/2/1 15/2/1
f 19/3/1 15/3/1 18/3/1
f 20/2/1 16/2/1 19/2/1
f 23/3/1 22/3/1 21/3/1
f 24/3/1 22/3/1 23/3/1
f 29/1/1 26/1/1 25/1/1
f 30/3/1 27/3/1 26/3/1
f 30/1/1 26/1/1 29/1/1
f 31/2/1 28/2/1 27/2/1
f 31/3/1 27/3/1 30/3/1
f 32/2/1 28/2/1 31/2/1
f 37/1/1 34/1/1 33/1/1
f 38/3/1 35/3/1 34/3/1
f 38/1/1 34/1/1 37/1/1
f 39/2/1 36/2/1 35/2/1
f 39/3/1 35/3/1 38/3/1
f 40/2/1 36/2/1 39/2/1
f 44/3/1 42/3/1 41/3/1
f 45/2/1 43/2/1 42/2/1
f 45/3/1 42/3/1 44/3/1
f 46/2/1 43/2/1 45/2/1
f 49/2/1 48/2/1 47/2/1
f 50/2/1 48/2/1 49/2/1
f 51/4/2 52/4/2 53/4/2
f 53/4/2 52/4/2 54/4/2
f 55/3/2 56/3/2 58/3/2
f 56/2/2 57/2/2 59/2/2
f 58/3/2 56/3/2 59/3/2
f 59/2/2 57/2/2 60/2/2
f 61/3/2 62/3/2 63/3/2
f 63/3/2 62/3/2 64/3/2
f 65/1/2 66/1/2 69/1/2
f 66/3/2 67/3/2 70/3/2
f 69/1/2 66/1/2 70/1/2
f 67/2/2 68/2/2 71/2/2
f 70/3/2 67/3/2 71/3/2
f 71/2/2 68/2/2 72/2/2
f 73/1/2 74/1/2 77/1/2
f 74/3/2 75/3/2 78/3/2
f 77/1/2 74/1/2 78/1/2
f 75/2/2 76/2/2 79/2/2
f 78/3/2 75/3/2 79/3/2
f 79/2/2 76/2/2 80/2/2
f 81/1/2 82/1/2 85/1/2
f 82/3/2 83/3/2 86/3/2
f 85/1/2 82/1/2 86/1/2
f 83/2/2 84/2/2 87/2/2
f 86/3/2 83/3/2 87/3/2
f 87/2/2 84/2/2 88/2/2
f 89/2/2 90/2/2 91/2/2
f 91/2/2 90/2/2 92/2/2
f 93/2/2 94/2/2 95/2/2
f 95/2/2 94/2/2 96/2/2
f 95/3/2 96/3/2 97/3/2
f 97/3/2 96/3/2 98/3/2
f 97/2/2 98/2/2 99/2/2
f 99/2/2 98/2/2 100/2/2
f 104/1/3 102/1/3 101/1/3
f 105/1/3 102/1/3 104/1/3
f 107/1/3 104/1/3 103/1/3
f 108/4/3 105/4/3 104/4/3
f 108/1/3 104/1/3 107/1/3
f 109/1/3 106/1/3 105/1/3
f 109/4/3 105/4/3 108/4/3
f 110/1/3 106/1/3 109/1/3
f 111/1/3 109/1/3 108/1/3
f 112/1/3 109/1/3 111/1/3
f 117/2/3 116/2/3 115/2/3
f 118/2/3 116/2/3 117/2/3
f 119/2/3 117/2/3 115/2/3
f 119/4/3 118/4/3 117/4/3
f 120/4/3 118/4/3 119/4/3
f 121/3/3 115/3/3 114/3/3
f 122/3/3 115/3/3 121/3/3
f 123/2/3 120/2/3 119/2/3
f 125/2/3 114/2/3 113/2/3
f 125/3/3 121/3/3 114/3/3
f 126/3/3 121/3/3 125/3/3
f 127/3/3 115/3/3 122/3/3
f 128/2/3 123/2/3 119/2/3
f 128/2/3 119/2/3 115/2/3
f 128/3/3 115/3/3 127/3/3
f 129/3/3 124/3/3 123/3/3
f 129/2/3 123/2/3 128/2/3
f 130/3/3 124/3/3 129/3/3
f 131/2/3 129/2/3 128/2/3
f 132/2/3 129/2/3 131/2/3
f 133/2/3 125/2/3 113/2/3
f 134/3/3 127/3/3 126/3/3
f 135/3/3 127/3/3 134/3/3
f 136/4/3 132/4/3 131/4/3
f 137/3/3 134/3/3 133/3/3
f 138/3/3 136/3/3 135/3/3
f 139/4/3 132/4/3 136/4/3
f 139/3/3 136/3/3 138/3/3
f 140/4/3 132/4/3 139/4/3
f 142/2/3 140/2/3 139/2/3
f 142/2/3 141/2/3 140/2/3
f 143/2/3 141/2/3 142/2/3
f 144/2/3 133/2/3 113/2/3
f 145/3/3 139/3/3 138/3/3
f 145/2/3 133/2/3 144/2/3
f 145/3/3 137/3/3 133/3/3
f 145/3/3 138/3/3 137/3/3
f 146/2/3 142/2/3 139/2/3
f 146/3/3 139/3/3 145/3/3
f 147/2/3 142/2/3 146/2/3
f 148/4/4 149/4/4 150/4/4
f 150/4/4 149/4/4 151/4/4
f 152/3/4 153/3/4 154/3/4
f 154/3/4 153/3/4 155/3/4
f 156/2/4 157/2/4 158/2/4
f 158/2/4 157/2/4 159/2/4
f 161/3/4 162/3/4 164/3/4
f 162/2/4 163/2/4 164/2/4
f 164/2/4 163/2/4 165/2/4
f 161/3/4 164/3/4 166/3/4
f 165/2/4 163/2/4 167/2/4
f 161/3/4 166/3/4 168/3/4
f 166/2/4 167/2/4 168/2/4
f 167/2/4 163/2/4 169/2/4
f 168/2/4 167/2/4 169/2/4
f 161/3/4 168/3/4 170/3/4
f 168/4/4 169/4/4 170/4/4
f 170/4/4 169/4/4 171/4/4
f 160/2/4 161/2/4 172/2/4
f 161/3/4 170/3/4 173/3/4
f 172/2/4 161/2/4 173/2/4
f 170/2/4 171/2/4 174/2/4
f 173/3/4 170/3/4 174/3/4
f 174/2/4 171/2/4 175/2/4
f 176/4/4 177/4/4 178/4/4
f 178/4/4 177/4/4 179/4/4
f 182/2/5 181/2/5 180/2/5
f 183/2/5 181/2/5 182/2/5
f 186/1/5 185/1/5 184/1/5
f 187/1/5 185/1/5 186/1/5
f 188/3/5 187/3/5 186/3/5
f 189/3/5 187/3/5 188/3/5
f 190/2/5 189/2/5 188/2/5
f 191/2/5 189/2/5 190/2/5
f 196/1/5 193/1/5 192/1/5
f 197/1/5 193/1/5 196/1/5
f 198/1/5 195/1/5 194/1/5
f 199/1/5 195/1/5 198/1/5
f 200/3/5 197/3/5 196/3/5
f 201/3/5 197/3/5 200/3/5
f 202/3/5 199/3/5 198/3/5
f 203/3/5 199/3/5 202/3/5
f 204/2/5 201/2/5 200/2/5
f 205/2/5 201/2/5 204/2/5
f 206/2/5 203/2/5 202/2/5
f 207/2/5 203/2/5 206/2/5
f 210/3/5 209/3/5 208/3/5
f 211/3/5 209/3/5 210/3/5
f 212/2/5 211/2/5 210/2/5
f 213/2/5 211/2/5 212/2/5
f 216/4/5 215/4/5 214/4/5
f 217/4/5 215/4/5 216/4/5
f 218/3/6 219/3/6 220/3/6
f 220/3/6 219/3/6 221/3/6
f 220/2/6 221/2/6 222/2/6
f 222/2/6 221/2/6 223/2/6
f 224/1/6 225/1/6 228/1/6
f 228/1/6 225/1/6 229/1/6
f 226/1/6 227/1/6 230/1/6
f 230/1/6 227/1/6 231/1/6
f 228/3/6 229/3/6 232/3/6
f 232/3/6 229/3/6 233/3/6
f 230/3/6 231/3/6 234/3/6
f 234/3/6 231/3/6 235/3/6
f 232/2/6 233/2/6 236/2/6
f 236/2/6 233/2/6 237/2/6
f 234/2/6 235/2/6 238/2/6
f 238/2/6 235/2/6 239/2/6
f 240/1/6 241/1/6 242/1/6
f 242/1/6 241/1/6 243/1/6
f 242/3/6 243/3/6 244/3/6
f 244/3/6 243/3/6 245/3/6
f 244/2/6 245/2/6 246/2/6
f 246/2/6 245/2/6 247/2/6
f 247/2/6 245/2/6 248/2/6
f 249/4/6 250/4/6 251/4/6
f 251/4/6 250/4/6 252/4/6
f 253/2/6 254/2/6 262/2/6
f 254/4/6 255/4/6 262/4/6
f 255/2/6 256/2/6 263/2/6
f 262/4/6 255/4/6 263/4/6
f 263/2/6 256/2/6 264/2/6
f 257/2/6 258/2/6 265/2/6
f 258/4/6 259/4/6 266/4/6
f 260/2/6 261/2/6 267/2/6
f 264/2/6 265/2/6 268/2/6
f 253/2/6 262/2/6 268/2/6
f 263/2/6 264/2/6 268/2/6
f 262/2/6 263/2/6 268/2/6
f 258/4/6 266/4/6 269/4/6
f 268/2/6 265/2/6 269/2/6
f 265/2/6 258/2/6 269/2/6
f 266/2/6 267/2/6 270/2/6
f 269/4/6 266/4/6 270/4/6
f 267/2/6 261/2/6 271/2/6
f 270/2/6 267/2/6 271/2/6
f 272/3/6 273/3/6 276/3/6
f 276/3/6 273/3/6 277/3/6
f 274/2/6 275/2/6 278/2/6
f 278/2/6 275/2/6 279/2/6
